<?xml version="1.0" encoding="UTF-8"?>
<svg width="250px" height="250px" fill="#0036ff" version="1.1" viewBox="-21.125 -5 250 250" xml:space="preserve" xmlns="http://www.w3.org/2000/svg"><path d="m60.053 3v18.439c0 1.657-1.293 3-2.89 3h-4.738v62.265c0 1.82-1.411 3.296-3.153 3.296h-38.605c-1.742 0-3.154-1.476-3.154-3.296v-62.265h-4.624c-1.596 0-2.889-1.343-2.889-3v-18.439c0-1.657 1.293-3 2.889-3h54.274c1.597 0 2.89 1.343 2.89 3zm-39.544 23.268c0-1.063-0.816-1.926-1.823-1.926h-3.931c-1.006 0-1.823 0.863-1.823 1.926v57.551c0 1.063 0.816 1.927 1.823 1.927h3.931c1.006 0 1.823-0.863 1.823-1.927v-57.551zm-10.583-22.896h-3.932c-1.006 0-1.822 0.784-1.822 1.75v13.221c0 0.967 0.816 1.751 1.822 1.751h3.932c1.006 0 1.822-0.784 1.822-1.751v-13.22c0-0.967-0.816-1.751-1.822-1.751z"/></svg>
