<svg height="100" viewBox="0 0 100 100" width="100" xmlns="http://www.w3.org/2000/svg"><g fill-rule="evenodd"><path d="m76.4951181 73.9145361h-46.7535135v5.0070931c-.9082298 5.1326995-5.4097206 9.0321917-10.8261116 9.0321917-6.0713919 0-10.99322741-4.8996443-10.99322741-10.943662 0-3.7295697 1.87410151-7.0233931 4.73595941-8.9991213l-3.15239945-4.4831231c-4.27939371 2.9654037-7.08017365 7.8982202-7.08017365 13.4822444 0 9.0660265 7.38275331 16.415493 16.4898411 16.415493 8.1671937 0 14.9476056-5.9107487 16.2601554-13.6695665h41.0970875c.9518134 1.6300117 2.7250639 2.7259045 4.7554331 2.7259045 3.0356959 0 5.4966137-2.4498222 5.4966137-5.471831s-2.4609178-5.4718309-5.4966137-5.4718309c-1.881505 0-3.5422124.9410848-4.5330509 2.3762081z" fill="#ffb020"/><path d="m13.9970435 74.7331616c.0949673-.23479.2073602-.4658107.3376173-.6914226 1.009899-1.7491964 2.8382853-2.7309867 4.7212102-2.7403916l20.6124169-35.7017534c-6.0738201-5.0121341-7.8192728-13.8242969-3.7483099-20.8754115 4.5374737-7.85913494 14.5825555-10.55438777 22.4363182-6.02001573 4.8218041 2.78386983 7.6966089 7.64559893 8.1475849 12.80319793l-5.45425.4781854c-.2999371-3.4393321-2.2166241-6.6816109-5.4319425-8.5379758-5.2358418-3.0229147-11.932563-1.2260795-14.9575454 4.0133438-2.9624211 5.1310638-1.3047996 11.6609474 3.6826898 14.7680602l3.0140572 1.7401667-23.3461486 40.4367155c.6634178 1.385595.7349653 3.0293788.1025716 4.5125242-.7716277 2.0886554-2.7817034 3.5778713-5.139842 3.5778713-3.0249824 0-5.4772152-2.4505565-5.4772152-5.4734712 0-.8174407.1793174-1.5930281.5007875-2.2896232z" fill="#d33131"/><path d="m49.662923 28.3537714 23.112482 40.0319932 2.7524856-1.5891483.0466755.0808443c.0227186-.0133294.0455023-.0265902.068351-.0397819 5.239481-3.0250158 11.9146611-1.2723038 14.9094321 3.9147917 2.994771 5.1870956 1.175074 11.8443271-4.0644069 14.8693429-3.2300258 1.8648562-7.0056823 1.9139592-10.1283183.4620406l-2.3314043 4.9370311c4.6797776 2.1676691 10.3333505 2.0899679 15.1709788-.7030381 7.8592215-4.5375236 10.588767-14.5233709 6.0966105-22.3040142-4.0559366-7.0250883-12.6123644-9.8505313-20.0206964-6.993171l-20.5078199-35.5205861c.8833832-1.6108761.933077-3.6201029-.0456428-5.3152954-1.4973855-2.5935477-4.8349756-3.4699037-7.4547161-1.9573958-2.6197405 1.5125078-3.529589 4.8411236-2.0322035 7.4346714.9516604 1.648324 2.6466184 2.6030378 4.4281927 2.6917156z" fill="#1cb0f6"/></g></svg>